<?xml version="1.0" standalone="no"?>
<!DOCTYPE svg PUBLIC "-//W3C//DTD SVG 20010904//EN"
 "http://www.w3.org/TR/2001/REC-SVG-20010904/DTD/svg10.dtd">
<svg version="1.0" xmlns="http://www.w3.org/2000/svg"
 width="260.000000pt" height="260.000000pt" viewBox="0 0 260.000000 260.000000"
 preserveAspectRatio="xMidYMid meet">
<metadata>
Created by potrace 1.14, written by Peter Selinger 2001-2017
</metadata>
<g transform="translate(0.000000,260.000000) scale(0.100000,-0.100000)"
fill="#000000" stroke="none">
<path d="M1170 2164 c-73 -22 -150 -90 -192 -170 -33 -62 -55 -144 -51 -184 5
-42 11 -68 17 -78 4 -7 -3 -22 -16 -34 -29 -28 -100 -115 -99 -122 0 -3 -6
-21 -14 -41 -8 -19 -16 -42 -18 -52 -1 -10 -5 -23 -9 -28 -8 -13 -2 -265 7
-318 4 -21 22 -95 41 -165 19 -70 37 -136 39 -147 18 -89 44 -169 62 -194 34
-46 107 -65 235 -63 l106 1 0 -33 c0 -31 -2 -33 -53 -43 -152 -32 -247 -126
-231 -229 4 -20 9 -40 12 -45 3 -5 1 -9 -4 -9 -16 0 -93 -84 -113 -123 -11
-20 -17 -37 -14 -37 2 0 0 -11 -5 -25 l-10 -25 85 0 c75 0 84 2 90 20 3 11 19
28 34 39 l27 20 19 -32 c10 -18 23 -35 29 -39 6 -4 125 -8 264 -8 l252 0 35
55 c39 60 35 60 96 3 16 -14 29 -34 29 -42 0 -13 14 -16 85 -16 95 0 96 2 72
70 -26 74 -85 146 -142 172 -21 10 -24 16 -21 50 6 55 -9 100 -45 137 -49 52
-114 75 -239 86 -25 2 -48 4 -51 4 -4 1 -11 19 -17 41 -12 47 -9 50 67 74 29
10 78 27 109 38 l55 20 -7 112 c-4 61 -9 127 -11 146 -7 53 -14 171 -20 305
-3 66 -7 127 -10 135 -2 8 -7 35 -10 59 -4 25 -17 79 -31 120 -39 124 -91 194
-171 232 -37 17 -51 28 -47 39 5 15 16 77 16 95 1 41 -14 121 -22 123 -5 2
-10 9 -10 15 0 7 -13 26 -28 43 -24 27 -38 37 -64 43 -4 1 -20 6 -35 10 -17 5
-45 3 -73 -5z"/>
</g>
</svg>
